<svg width="14" height="12" viewBox="0 0 14 12" fill="none" xmlns="http://www.w3.org/2000/svg">
<path d="M8.41091 8.38425L9.3228 7.5895L7.49902 6L9.3228 4.4105L8.41091 3.61575L6.58713 5.20525L4.76336 3.61575L3.85147 4.4105L5.67525 6L3.85147 7.5895L4.76336 8.38425L6.58713 6.79475L8.41091 8.38425ZM11.1466 9.97375C10.5158 10.5235 9.80344 10.9357 9.00933 11.2106C8.21523 11.4854 7.40783 11.6229 6.58713 11.6229C5.76644 11.6229 4.95904 11.4854 4.16493 11.2106C3.37083 10.9357 2.65842 10.5235 2.0277 9.97375C1.39698 9.42405 0.923934 8.80315 0.608573 8.11106C0.293212 7.41896 0.135532 6.71528 0.135532 6C0.135532 5.28472 0.293212 4.58104 0.608573 3.88894C0.923934 3.19685 1.39698 2.57595 2.0277 2.02625C2.65842 1.47655 3.37083 1.06427 4.16493 0.789418C4.95904 0.514566 5.76644 0.377141 6.58713 0.37714C7.40783 0.377141 8.21523 0.514566 9.00933 0.789417C9.80344 1.06427 10.5158 1.47655 11.1466 2.02625C11.7773 2.57595 12.2503 3.19685 12.5657 3.88894C12.8811 4.58104 13.0387 5.28472 13.0387 6C13.0387 6.71528 12.8811 7.41896 12.5657 8.11106C12.2503 8.80315 11.7773 9.42405 11.1466 9.97375ZM10.2347 9.179C11.253 8.29153 11.7621 7.23186 11.7621 6C11.7621 4.76814 11.253 3.70847 10.2347 2.821C9.21641 1.93353 8.00056 1.48979 6.58713 1.48979C5.17371 1.48979 3.95786 1.93353 2.93958 2.821C1.92131 3.70847 1.41217 4.76814 1.41217 6C1.41217 7.23186 1.92131 8.29153 2.93958 9.179C3.95786 10.0665 5.17371 10.5102 6.58713 10.5102C8.00056 10.5102 9.21641 10.0665 10.2347 9.179Z" fill="#5B5B5B"/>
</svg>
