<svg width="27" height="27" viewBox="0 0 27 27" fill="none" xmlns="http://www.w3.org/2000/svg">
<path d="M16.8552 18.6767L18.6764 16.8554L15.0339 13.2129L18.6764 9.57036L16.8552 7.7491L13.2126 11.3916L9.57012 7.7491L7.74885 9.57036L11.3914 13.2129L7.74885 16.8554L9.57012 18.6767L13.2126 15.0342L16.8552 18.6767ZM22.319 22.3192C21.0593 23.5789 19.6364 24.5237 18.0504 25.1536C16.4644 25.7834 14.8518 26.0983 13.2126 26.0983C11.5735 26.0983 9.96093 25.7834 8.37491 25.1536C6.78889 24.5237 5.36603 23.5789 4.10632 22.3192C2.84662 21.0595 1.90183 19.6366 1.27198 18.0506C0.642126 16.4646 0.3272 14.852 0.327199 13.2129C0.3272 11.5738 0.642126 9.96117 1.27198 8.37516C1.90183 6.78914 2.84662 5.36628 4.10632 4.10657C5.36603 2.84686 6.78889 1.90208 8.37491 1.27222C9.96093 0.64237 11.5735 0.327442 13.2126 0.327442C14.8518 0.327443 16.4644 0.642369 18.0504 1.27222C19.6364 1.90208 21.0593 2.84686 22.319 4.10657C23.5787 5.36628 24.5235 6.78914 25.1533 8.37516C25.7832 9.96117 26.0981 11.5738 26.0981 13.2129C26.0981 14.852 25.7832 16.4646 25.1533 18.0506C24.5235 19.6366 23.5787 21.0595 22.319 22.3192ZM20.4977 20.4979C22.5315 18.4642 23.5483 16.0359 23.5483 13.2129C23.5483 10.3899 22.5315 7.96158 20.4977 5.92783C18.464 3.89409 16.0356 2.87721 13.2126 2.87721C10.3897 2.87721 7.96133 3.89409 5.92759 5.92783C3.89384 7.96158 2.87697 10.3899 2.87697 13.2129C2.87697 16.0359 3.89384 18.4642 5.92759 20.4979C7.96133 22.5317 10.3897 23.5486 13.2126 23.5486C16.0356 23.5486 18.464 22.5317 20.4977 20.4979Z" fill="#5B5B5B"/>
</svg>
