<svg width="17" height="17" viewBox="0 0 17 17" fill="none" xmlns="http://www.w3.org/2000/svg">
<g clip-path="url(#clip0_1303_6958)">
<path d="M2.5 16C2.0875 16 1.73438 15.8533 1.44063 15.5599C1.14687 15.2665 1 14.9139 1 14.5019V4.01498C1 3.603 1.14687 3.25031 1.44063 2.95693C1.73438 2.66355 2.0875 2.51685 2.5 2.51685H9.19375L7.69375 4.01498H2.5V14.5019H13V9.29588L14.5 7.79775V14.5019C14.5 14.9139 14.3531 15.2665 14.0594 15.5599C13.7656 15.8533 13.4125 16 13 16H2.5ZM5.5 11.5056V8.3221L12.3813 1.44944C12.5312 1.29963 12.7 1.18727 12.8875 1.11236C13.075 1.03745 13.2625 1 13.45 1C13.65 1 13.8406 1.03745 14.0219 1.11236C14.2031 1.18727 14.3688 1.29963 14.5188 1.44944L15.5688 2.51685C15.7063 2.66667 15.8125 2.83208 15.8875 3.01311C15.9625 3.19413 16 3.37828 16 3.56554C16 3.75281 15.9656 3.93695 15.8969 4.11798C15.8281 4.299 15.7188 4.46442 15.5688 4.61423L8.6875 11.5056H5.5ZM7 10.0075H8.05L12.4 5.66292L11.875 5.13858L11.3313 4.61423L7 8.94007V10.0075Z" fill="#64B1C9"/>
</g>
<defs>
<clipPath id="clip0_1303_6958">
<rect width="17" height="17" fill="white"/>
</clipPath>
</defs>
</svg>
