<svg width="23" height="25" viewBox="0 0 23 25" fill="none" xmlns="http://www.w3.org/2000/svg">
<path d="M10.3685 1.29349C10.7151 1.10101 11.105 1 11.5015 1C11.898 1 12.2879 1.10101 12.6345 1.29349L21.4033 6.16386C21.5851 6.26495 21.7365 6.41281 21.842 6.59211C21.9474 6.77142 22.003 6.97565 22.003 7.18367V16.7926C22.0029 17.2087 21.8915 17.6172 21.6804 17.9759C21.4693 18.3345 21.1662 18.6301 20.8023 18.8322L12.6345 23.3712C12.2879 23.5636 11.898 23.6647 11.5015 23.6647C11.105 23.6647 10.7151 23.5636 10.3685 23.3712L2.20067 18.8322C1.83704 18.6302 1.53398 18.3348 1.32288 17.9764C1.11178 17.618 1.00031 17.2097 1 16.7937V7.18367C0.999991 6.97565 1.05559 6.77142 1.16104 6.59211C1.26649 6.41281 1.41796 6.26495 1.59975 6.16386L10.3685 1.29349Z" stroke="#F8F8F8" stroke-width="2" stroke-linecap="round" stroke-linejoin="round"/>
<path d="M6.25025 3.58032L16.7518 9.41449V13.4984M4.5 12.7143L8.0005 14.6652" stroke="#F8F8F8" stroke-width="2" stroke-linecap="round" stroke-linejoin="round"/>
<path d="M1 6.49744L11.5015 12.3316M11.5015 12.3316L22.003 6.49744M11.5015 12.3316V24" stroke="#F8F8F8" stroke-width="2" stroke-linejoin="round"/>
</svg>
