<svg width="19" height="18" viewBox="0 0 19 18" fill="none" xmlns="http://www.w3.org/2000/svg">
<path d="M1.9 18C1.3775 18 0.930208 17.7797 0.558125 17.3391C0.186042 16.8984 0 16.3687 0 15.75V12.375H1.9V15.75H17.1V2.25H1.9V5.625H0V2.25C0 1.63125 0.186042 1.10156 0.558125 0.660937C0.930208 0.220312 1.3775 0 1.9 0H17.1C17.6225 0 18.0698 0.220312 18.4419 0.660937C18.814 1.10156 19 1.63125 19 2.25V15.75C19 16.3687 18.814 16.8984 18.4419 17.3391C18.0698 17.7797 17.6225 18 17.1 18H1.9ZM9.025 14.0625L7.695 12.4312L9.66625 10.125H0V7.875H9.66625L7.695 5.56875L9.025 3.9375L13.3 9L9.025 14.0625Z" fill="white"/>
</svg>
