<svg width="13" height="13" viewBox="0 0 13 13" fill="none" xmlns="http://www.w3.org/2000/svg">
<mask id="path-1-inside-1_1540_3921" fill="white">
<path d="M5.85 9.75H7.15L7.15 7.15L9.75 7.15V5.85L7.15 5.85V3.25H5.85V5.85H3.25V7.15H5.85L5.85 9.75ZM6.5 13C5.60083 13 4.75583 12.8294 3.965 12.4881C3.17417 12.1469 2.48625 11.6837 1.90125 11.0987C1.31625 10.5138 0.853125 9.82583 0.511875 9.035C0.170625 8.24417 0 7.39917 0 6.5C0 5.60083 0.170625 4.75583 0.511875 3.965C0.853125 3.17417 1.31625 2.48625 1.90125 1.90125C2.48625 1.31625 3.17417 0.853125 3.965 0.511875C4.75583 0.170625 5.60083 0 6.5 0C7.39917 0 8.24417 0.170625 9.035 0.511875C9.82583 0.853125 10.5138 1.31625 11.0987 1.90125C11.6837 2.48625 12.1469 3.17417 12.4881 3.965C12.8294 4.75583 13 5.60083 13 6.5C13 7.39917 12.8294 8.24417 12.4881 9.035C12.1469 9.82583 11.6837 10.5138 11.0987 11.0987C10.5138 11.6837 9.82583 12.1469 9.035 12.4881C8.24417 12.8294 7.39917 13 6.5 13ZM6.5 11.7C7.95167 11.7 9.18125 11.1962 10.1887 10.1887C11.1962 9.18125 11.7 7.95167 11.7 6.5C11.7 5.04833 11.1962 3.81875 10.1887 2.81125C9.18125 1.80375 7.95167 1.3 6.5 1.3C5.04833 1.3 3.81875 1.80375 2.81125 2.81125C1.80375 3.81875 1.3 5.04833 1.3 6.5C1.3 7.95167 1.80375 9.18125 2.81125 10.1887C3.81875 11.1962 5.04833 11.7 6.5 11.7Z"/>
</mask>
<path d="M5.85 9.75H7.15L7.15 7.15L9.75 7.15V5.85L7.15 5.85V3.25H5.85V5.85H3.25V7.15H5.85L5.85 9.75ZM6.5 13C5.60083 13 4.75583 12.8294 3.965 12.4881C3.17417 12.1469 2.48625 11.6837 1.90125 11.0987C1.31625 10.5138 0.853125 9.82583 0.511875 9.035C0.170625 8.24417 0 7.39917 0 6.5C0 5.60083 0.170625 4.75583 0.511875 3.965C0.853125 3.17417 1.31625 2.48625 1.90125 1.90125C2.48625 1.31625 3.17417 0.853125 3.965 0.511875C4.75583 0.170625 5.60083 0 6.5 0C7.39917 0 8.24417 0.170625 9.035 0.511875C9.82583 0.853125 10.5138 1.31625 11.0987 1.90125C11.6837 2.48625 12.1469 3.17417 12.4881 3.965C12.8294 4.75583 13 5.60083 13 6.5C13 7.39917 12.8294 8.24417 12.4881 9.035C12.1469 9.82583 11.6837 10.5138 11.0987 11.0987C10.5138 11.6837 9.82583 12.1469 9.035 12.4881C8.24417 12.8294 7.39917 13 6.5 13ZM6.5 11.7C7.95167 11.7 9.18125 11.1962 10.1887 10.1887C11.1962 9.18125 11.7 7.95167 11.7 6.5C11.7 5.04833 11.1962 3.81875 10.1887 2.81125C9.18125 1.80375 7.95167 1.3 6.5 1.3C5.04833 1.3 3.81875 1.80375 2.81125 2.81125C1.80375 3.81875 1.3 5.04833 1.3 6.5C1.3 7.95167 1.80375 9.18125 2.81125 10.1887C3.81875 11.1962 5.04833 11.7 6.5 11.7Z" fill="white"/>
<path d="M5.85 9.75H0.85L0.85 14.75H5.85V9.75ZM7.15 9.75V14.75H12.15V9.75H7.15ZM7.15 7.15V2.15L2.15 2.15L2.15 7.15H7.15ZM9.75 7.15V12.15H14.75V7.15H9.75ZM9.75 5.85H14.75V0.85L9.75 0.85V5.85ZM7.15 5.85H2.15V10.85H7.15L7.15 5.85ZM7.15 3.25L12.15 3.25V-1.75L7.15 -1.75V3.25ZM5.85 3.25V-1.75L0.85 -1.75L0.85 3.25L5.85 3.25ZM5.85 5.85L5.85 10.85H10.85V5.85L5.85 5.85ZM3.25 5.85L3.25 0.85L-1.75 0.85L-1.75 5.85H3.25ZM3.25 7.15H-1.75L-1.75 12.15H3.25L3.25 7.15ZM5.85 7.15L10.85 7.15V2.15H5.85V7.15ZM5.85 14.75H7.15L7.15 4.75H5.85L5.85 14.75ZM12.15 9.75V7.15L2.15 7.15V9.75H12.15ZM7.15 12.15H9.75V2.15H7.15L7.15 12.15ZM14.75 7.15V5.85L4.75 5.85V7.15L14.75 7.15ZM9.75 0.85L7.15 0.85L7.15 10.85H9.75V0.85ZM12.15 5.85V3.25L2.15 3.25L2.15 5.85L12.15 5.85ZM7.15 -1.75L5.85 -1.75L5.85 8.25H7.15L7.15 -1.75ZM0.85 3.25L0.85 5.85L10.85 5.85V3.25L0.85 3.25ZM5.85 0.85L3.25 0.85L3.25 10.85H5.85L5.85 0.85ZM-1.75 5.85L-1.75 7.15L8.25 7.15V5.85L-1.75 5.85ZM3.25 12.15H5.85L5.85 2.15L3.25 2.15L3.25 12.15ZM0.85 7.15L0.85 9.75H10.85V7.15L0.85 7.15ZM6.5 8C6.25159 8 6.0838 7.95677 5.94598 7.89729L1.98402 17.079C3.42787 17.702 4.95008 18 6.5 18L6.5 8ZM5.94598 7.89729C5.71111 7.79595 5.55664 7.68307 5.43678 7.56322L-1.63428 14.6343C-0.584139 15.6844 0.637221 16.4978 1.98402 17.079L5.94598 7.89729ZM5.43678 7.56322C5.31693 7.44336 5.20405 7.28889 5.10271 7.05402L-4.07896 11.016C-3.4978 12.3628 -2.68443 13.5841 -1.63428 14.6343L5.43678 7.56322ZM5.10271 7.05402C5.04323 6.9162 5 6.74841 5 6.5H-5C-5 8.04992 -4.70198 9.57213 -4.07896 11.016L5.10271 7.05402ZM5 6.5C5 6.25159 5.04323 6.0838 5.10271 5.94598L-4.07896 1.98402C-4.70198 3.42787 -5 4.95008 -5 6.5H5ZM5.10271 5.94598C5.20405 5.71111 5.31693 5.55664 5.43678 5.43678L-1.63428 -1.63428C-2.68443 -0.584139 -3.4978 0.637221 -4.07896 1.98402L5.10271 5.94598ZM5.43678 5.43678C5.55664 5.31693 5.71111 5.20405 5.94598 5.10271L1.98402 -4.07896C0.637221 -3.4978 -0.584139 -2.68443 -1.63428 -1.63428L5.43678 5.43678ZM5.94598 5.10271C6.0838 5.04323 6.25159 5 6.5 5V-5C4.95008 -5 3.42787 -4.70198 1.98402 -4.07896L5.94598 5.10271ZM6.5 5C6.74841 5 6.9162 5.04323 7.05402 5.10271L11.016 -4.07896C9.57213 -4.70198 8.04992 -5 6.5 -5V5ZM7.05402 5.10271C7.28889 5.20405 7.44336 5.31693 7.56322 5.43678L14.6343 -1.63428C13.5841 -2.68443 12.3628 -3.4978 11.016 -4.07896L7.05402 5.10271ZM7.56322 5.43678C7.68307 5.55664 7.79595 5.71111 7.89729 5.94598L17.079 1.98402C16.4978 0.637221 15.6844 -0.584139 14.6343 -1.63428L7.56322 5.43678ZM7.89729 5.94598C7.95677 6.0838 8 6.25159 8 6.5L18 6.5C18 4.95008 17.702 3.42787 17.079 1.98402L7.89729 5.94598ZM8 6.5C8 6.74841 7.95677 6.9162 7.89729 7.05402L17.079 11.016C17.702 9.57213 18 8.04992 18 6.5L8 6.5ZM7.89729 7.05402C7.79595 7.28889 7.68307 7.44336 7.56322 7.56322L14.6343 14.6343C15.6844 13.5841 16.4978 12.3628 17.079 11.016L7.89729 7.05402ZM7.56322 7.56322C7.44336 7.68307 7.28889 7.79595 7.05402 7.89729L11.016 17.079C12.3628 16.4978 13.5841 15.6844 14.6343 14.6343L7.56322 7.56322ZM7.05402 7.89729C6.9162 7.95677 6.74841 8 6.5 8L6.5 18C8.04992 18 9.57213 17.702 11.016 17.079L7.05402 7.89729ZM6.5 16.7C9.24972 16.7 11.7595 15.6891 13.7243 13.7243L6.65322 6.65322C6.61449 6.69194 6.59365 6.70599 6.59257 6.70673C6.59218 6.70699 6.60089 6.70137 6.61539 6.69543C6.62976 6.68954 6.63488 6.68945 6.62387 6.69152C6.6119 6.69377 6.57287 6.7 6.5 6.7L6.5 16.7ZM13.7243 13.7243C15.6891 11.7595 16.7 9.24972 16.7 6.5L6.7 6.5C6.7 6.57287 6.69377 6.6119 6.69152 6.62387C6.68945 6.63488 6.68954 6.62976 6.69543 6.61539C6.70137 6.60089 6.70699 6.59218 6.70673 6.59257C6.70599 6.59365 6.69194 6.61449 6.65322 6.65322L13.7243 13.7243ZM16.7 6.5C16.7 3.75028 15.6891 1.24053 13.7243 -0.724284L6.65322 6.34678C6.69194 6.38551 6.70599 6.40635 6.70673 6.40743C6.70699 6.40782 6.70137 6.39911 6.69543 6.38461C6.68954 6.37024 6.68945 6.36511 6.69152 6.37613C6.69377 6.3881 6.7 6.42713 6.7 6.5L16.7 6.5ZM13.7243 -0.724284C11.7595 -2.6891 9.24972 -3.7 6.5 -3.7V6.3C6.57287 6.3 6.6119 6.30623 6.62387 6.30848C6.63488 6.31055 6.62976 6.31046 6.61539 6.30457C6.60089 6.29863 6.59218 6.29301 6.59257 6.29327C6.59365 6.29401 6.61449 6.30806 6.65322 6.34678L13.7243 -0.724284ZM6.5 -3.7C3.75028 -3.7 1.24053 -2.6891 -0.724284 -0.724284L6.34678 6.34678C6.38551 6.30806 6.40635 6.29401 6.40743 6.29327C6.40782 6.29301 6.39911 6.29863 6.38461 6.30457C6.37024 6.31046 6.36511 6.31055 6.37613 6.30848C6.3881 6.30623 6.42713 6.3 6.5 6.3V-3.7ZM-0.724284 -0.724284C-2.6891 1.24053 -3.7 3.75028 -3.7 6.5H6.3C6.3 6.42713 6.30623 6.3881 6.30848 6.37613C6.31055 6.36511 6.31046 6.37024 6.30457 6.38461C6.29863 6.39911 6.29301 6.40782 6.29327 6.40743C6.29401 6.40635 6.30806 6.38551 6.34678 6.34678L-0.724284 -0.724284ZM-3.7 6.5C-3.7 9.24972 -2.6891 11.7595 -0.724284 13.7243L6.34678 6.65322C6.30806 6.61449 6.29401 6.59365 6.29327 6.59257C6.29301 6.59218 6.29863 6.60089 6.30457 6.61539C6.31046 6.62976 6.31055 6.63488 6.30848 6.62387C6.30623 6.6119 6.3 6.57287 6.3 6.5H-3.7ZM-0.724284 13.7243C1.24053 15.6891 3.75028 16.7 6.5 16.7L6.5 6.7C6.42713 6.7 6.3881 6.69377 6.37613 6.69152C6.36511 6.68945 6.37024 6.68954 6.38461 6.69543C6.39911 6.70137 6.40782 6.70699 6.40743 6.70673C6.40635 6.70599 6.38551 6.69194 6.34678 6.65322L-0.724284 13.7243Z" fill="white" mask="url(#path-1-inside-1_1540_3921)"/>
</svg>
